# xmcd CD database file
#
# Track frame offsets:
#	150
#	16478
#	40234
#	55457
#	71928
#	81270
#	96815
#	116657
#	130249
#	142597
#
# Disc length: 2107 seconds
#
# Revision: 4
# Processed by: cddbd v1.5.2PL0 Copyright (c) Steve Scherf et al.
# Submitted via: CDex 1.51
#
DISCID=8a08390a
DTITLE=Prince - One Nite Alone...
DYEAR=2002
DGENRE=Soul/R&B
TTITLE0=One Nite Alone...
TTITLE1=U're Gonna C Me
TTITLE2=Here On Earth
TTITLE3=A Case Of U
TTITLE4=Have A Heart
TTITLE5=Objects In The Mirror
TTITLE6=Avalanche
TTITLE7=Pearls B4 The Swine
TTITLE8=Young And Beautiful
TTITLE9=Arboretum
EXTD=Piano and Voice Solo YEAR: 2002
EXTT0=
EXTT1=
EXTT2=
EXTT3=
EXTT4=
EXTT5=
EXTT6=
EXTT7=
EXTT8=
EXTT9=
PLAYORDER=
